<svg width="47" height="22" viewBox="0 0 47 22" fill="none" xmlns="http://www.w3.org/2000/svg">
<g id="Logo_on_White">
<path id="Vector" d="M10.4583 20.0454C10.4095 20.0595 10.3635 20.0813 10.3218 20.1097L10.321 20.1105C10.2141 20.1842 10.2332 20.3471 10.3537 20.3942L10.8206 20.5766L12.6331 21.2695C12.8512 21.3529 13.0961 21.2395 13.1726 21.017C13.2451 20.805 13.1293 20.5739 12.9194 20.4936L12.5836 20.3654C16.6081 19.2828 19.6746 15.6327 19.6851 11.2929C19.6882 11.1951 19.6898 11.0965 19.6898 10.9979C19.6898 6.5973 16.6705 2.90129 12.5887 1.86505C12.4061 1.81867 12.2228 1.89116 12.116 2.03146C12.0738 2.08641 12.0438 2.15188 12.0305 2.22475C12.0301 2.22787 12.0294 2.23099 12.029 2.23372C11.9849 2.47144 12.1339 2.70098 12.3683 2.7606C16.0468 3.69825 18.767 7.03027 18.767 10.9979C18.767 11.0872 18.765 11.1764 18.7623 11.2649C18.7623 11.2664 18.7623 11.268 18.7623 11.2699C18.7623 15.2485 16.0261 18.5875 12.3313 19.5139C12.169 19.5544 12.0075 19.5973 11.8468 19.6436L11.1533 19.8315L10.4583 20.0454Z" fill="#27326A"/>
<g id="Group">
<path id="Vector_2" d="M26.6711 13.4515C26.5116 13.3268 26.3162 13.2243 26.0849 13.1448C25.8536 13.0653 25.5919 12.9936 25.2993 12.9297C25.0602 12.8713 24.8473 12.8062 24.6612 12.7345C24.4752 12.6628 24.3301 12.5685 24.2267 12.4515C24.123 12.3346 24.0711 12.1858 24.0711 12.0053C24.0711 11.8514 24.1163 11.7173 24.2068 11.6028C24.2973 11.4886 24.4272 11.3982 24.5976 11.3319C24.7677 11.2657 24.9725 11.2325 25.2116 11.2325C25.3602 11.2325 25.5158 11.2563 25.6781 11.3042C25.8403 11.3522 25.9932 11.4118 26.1367 11.4835C26.2803 11.5552 26.3946 11.6363 26.4796 11.7263C26.5326 11.7688 26.5966 11.7902 26.6711 11.7902C26.7721 11.7902 26.8611 11.7493 26.9383 11.6667C27.0151 11.5844 27.0537 11.4952 27.0537 11.3997C27.0537 11.2723 26.9898 11.1526 26.8622 11.0412C26.6812 10.8658 26.4445 10.7263 26.1524 10.623C25.8598 10.5194 25.5462 10.4675 25.2112 10.4675C24.8441 10.4675 24.5146 10.5314 24.2224 10.6589C23.9299 10.7863 23.6986 10.9671 23.5285 11.2006C23.3585 11.4344 23.2734 11.7134 23.2734 12.0373C23.2734 12.2762 23.3132 12.4862 23.3932 12.6667C23.4728 12.8475 23.5874 13.003 23.736 13.1328C23.885 13.2629 24.0644 13.3705 24.2743 13.4554C24.4841 13.5404 24.7221 13.6066 24.9881 13.6546C25.2751 13.713 25.5209 13.7836 25.7256 13.8658C25.9304 13.9484 26.0872 14.0521 26.196 14.1768C26.3049 14.3019 26.3595 14.4597 26.3595 14.6511C26.3595 14.805 26.3064 14.9406 26.1999 15.0575C26.0935 15.1745 25.9515 15.2676 25.7732 15.3366C25.595 15.4055 25.3996 15.4402 25.187 15.4402C24.889 15.4402 24.63 15.3923 24.4092 15.2968C24.1885 15.2013 23.9771 15.0603 23.7754 14.8744C23.7009 14.8159 23.6214 14.7867 23.5363 14.7867C23.4248 14.7867 23.3316 14.8264 23.2571 14.9063C23.1826 14.9862 23.1455 15.0766 23.1455 15.1772C23.1455 15.2407 23.1599 15.3034 23.1896 15.3646C23.2188 15.4258 23.2625 15.4776 23.321 15.5201C23.5921 15.7645 23.8764 15.9398 24.1744 16.0462C24.472 16.1526 24.8126 16.2056 25.1952 16.2056C25.5568 16.2056 25.8852 16.139 26.18 16.0065C26.4753 15.8736 26.7128 15.6877 26.8938 15.4488C27.0744 15.2099 27.1649 14.9309 27.1649 14.6121C27.1649 14.3358 27.1224 14.1047 27.0374 13.9188C26.9527 13.7317 26.8306 13.5762 26.6711 13.4515Z" fill="#27326A"/>
<path id="Vector_3" d="M33.0673 10.5387C32.9343 10.5387 32.8251 10.5999 32.7404 10.7219L30.8429 13.5399L28.9917 10.7219C28.9543 10.6634 28.9012 10.6182 28.8322 10.5863C28.7632 10.5543 28.6965 10.5383 28.6329 10.5383C28.5213 10.5383 28.4242 10.5781 28.3419 10.658C28.2592 10.7375 28.2183 10.8333 28.2183 10.9448V15.718C28.2183 15.8349 28.2541 15.9319 28.3259 16.0091C28.3977 16.0859 28.4893 16.1244 28.6013 16.1244C28.7183 16.1244 28.8127 16.0859 28.8845 16.0091C28.9562 15.9323 28.9921 15.8349 28.9921 15.718V12.0715L30.4914 14.4035C30.5285 14.4514 30.578 14.4923 30.6389 14.527C30.7001 14.5617 30.7598 14.5761 30.8183 14.5711C30.8823 14.5765 30.9431 14.5617 31.0016 14.527C31.0601 14.4927 31.1081 14.4514 31.1451 14.4035L32.6445 12.1221V15.7184C32.6445 15.8353 32.6831 15.9323 32.7599 16.0095C32.8368 16.0862 32.9393 16.1248 33.0669 16.1248C33.189 16.1248 33.2873 16.0862 33.3621 16.0095C33.4366 15.9327 33.4737 15.8353 33.4737 15.7184V10.9452C33.4737 10.8283 33.4324 10.7312 33.3501 10.6541C33.2678 10.5773 33.1734 10.5387 33.0673 10.5387Z" fill="#27326A"/>
<path id="Vector_4" d="M35.2553 10.5466C35.1278 10.5466 35.024 10.5852 34.9445 10.662C34.8649 10.7391 34.8247 10.8362 34.8247 10.9527V15.7181C34.8247 15.835 34.8633 15.932 34.9402 16.0092C35.017 16.086 35.1168 16.1246 35.2393 16.1246C35.3509 16.1246 35.448 16.086 35.5303 16.0092C35.6126 15.9324 35.6567 15.835 35.6617 15.7181V10.9531C35.6617 10.8362 35.6204 10.7391 35.5381 10.6624C35.4562 10.5852 35.3618 10.5466 35.2553 10.5466Z" fill="#27326A"/>
<path id="Vector_5" d="M40.5203 10.5466H36.8913C36.7797 10.5466 36.6838 10.5813 36.6042 10.6503C36.5246 10.7193 36.4849 10.8097 36.4849 10.9211C36.4849 11.0381 36.5246 11.1324 36.6042 11.2041C36.6842 11.2758 36.7797 11.3116 36.8913 11.3116H38.2791V15.7181C38.2791 15.835 38.3177 15.932 38.3945 16.0092C38.4714 16.086 38.5739 16.1246 38.7015 16.1246C38.8236 16.1246 38.9261 16.086 39.0084 16.0092C39.0907 15.9324 39.1321 15.835 39.1321 15.7181V11.3116H40.5199C40.6314 11.3116 40.7258 11.2773 40.803 11.208C40.8799 11.139 40.9185 11.0462 40.9185 10.9289C40.9185 10.8175 40.8799 10.7259 40.803 10.6538C40.7262 10.5825 40.6318 10.5466 40.5203 10.5466Z" fill="#27326A"/>
<path id="Vector_6" d="M46.0772 10.6622C46.0027 10.5855 45.9017 10.5469 45.7742 10.5469C45.6626 10.5469 45.5655 10.5855 45.4832 10.6622C45.4005 10.7394 45.3596 10.8364 45.3596 10.953V12.9214H42.584V10.953C42.584 10.836 42.5427 10.739 42.4604 10.6622C42.3777 10.5855 42.2837 10.5469 42.1772 10.5469C42.0496 10.5469 41.9459 10.5855 41.8663 10.6622C41.7868 10.7394 41.7466 10.8364 41.7466 10.953V15.7183C41.7466 15.8352 41.7852 15.9323 41.862 16.0094C41.9389 16.0862 42.0387 16.1248 42.1612 16.1248C42.2728 16.1248 42.3699 16.0862 42.4522 16.0094C42.5345 15.9327 42.5785 15.8352 42.5836 15.7183V13.6864H45.3592V15.7183C45.3592 15.8352 45.3989 15.9323 45.4789 16.0094C45.5585 16.0862 45.6544 16.1248 45.766 16.1248C45.8935 16.1248 45.9957 16.0862 46.0729 16.0094C46.1498 15.9327 46.1884 15.8352 46.1884 15.7183V10.953C46.1892 10.836 46.1517 10.7394 46.0772 10.6622Z" fill="#27326A"/>
<path id="Vector_7" d="M26.6252 6.8178C26.7204 6.70478 26.7941 6.57696 26.8463 6.43432C26.8982 6.29169 26.9243 6.13697 26.9243 5.97096C26.9243 5.77182 26.8865 5.58514 26.8112 5.41133C26.736 5.23752 26.6334 5.08593 26.5039 4.95654C26.3744 4.82716 26.223 4.72505 26.0503 4.65101C25.8775 4.57696 25.6938 4.53955 25.4987 4.53955H23.2923C23.2458 4.53955 23.2096 4.55319 23.1842 4.58086C23.1589 4.60853 23.146 4.64555 23.146 4.69232V9.32714C23.146 9.37586 23.1593 9.41171 23.1858 9.43509C23.2123 9.45848 23.2478 9.47017 23.2923 9.47017H25.6949C25.89 9.47017 26.0756 9.43042 26.2515 9.35053C26.4278 9.27064 26.5815 9.16308 26.7133 9.02668C26.8452 8.89067 26.9497 8.73245 27.0273 8.55201C27.1049 8.37157 27.1435 8.18062 27.1435 7.97914C27.1435 7.75349 27.0971 7.53993 27.0039 7.33845C26.9111 7.13775 26.7847 6.96394 26.6252 6.8178ZM24.432 5.51967H25.145C25.2183 5.51967 25.2862 5.53253 25.3482 5.55786C25.4102 5.5832 25.4636 5.61827 25.5081 5.66231C25.5526 5.70673 25.5869 5.7574 25.6115 5.81507C25.636 5.87275 25.6481 5.93432 25.6481 6.00096C25.6481 6.07189 25.6353 6.13658 25.6099 6.19504C25.5845 6.25389 25.5494 6.30455 25.505 6.34781C25.4605 6.39068 25.4067 6.42419 25.3435 6.44718C25.2799 6.47057 25.2105 6.48226 25.1352 6.48226H24.432V5.51967ZM25.7858 8.13619C25.7605 8.20244 25.7242 8.26167 25.6774 8.3139C25.6306 8.36573 25.5764 8.40743 25.5139 8.43821C25.4519 8.469 25.3841 8.48459 25.3107 8.48459H24.432V7.37547H25.3111C25.3845 7.37547 25.4527 7.39223 25.5159 7.42536C25.5791 7.45848 25.6337 7.50135 25.6793 7.55318C25.7246 7.6054 25.7605 7.66464 25.7858 7.73089C25.8112 7.79714 25.824 7.86378 25.824 7.93003C25.8244 8.00096 25.8116 8.06994 25.7858 8.13619Z" fill="#27326A"/>
<path id="Vector_8" d="M32.0392 4.57365C32.006 4.55144 31.9674 4.54053 31.9233 4.54053H30.9521C30.9081 4.54053 30.8722 4.55495 30.8445 4.58379C30.8168 4.61262 30.8031 4.64731 30.8031 4.68706V6.26383H29.1517V4.68706C29.1517 4.64497 29.1341 4.61029 29.0986 4.58262C29.0632 4.55495 29.0288 4.54092 28.9957 4.54092H28.0089C27.9667 4.54092 27.9328 4.55573 27.9075 4.58573C27.8821 4.61574 27.8681 4.64926 27.8657 4.68706V9.34215C27.8681 9.42828 27.9156 9.47153 28.0085 9.47153H28.9855C29.0366 9.47153 29.0768 9.45867 29.1068 9.43334C29.1369 9.40801 29.1517 9.37177 29.1517 9.32539V7.43958H30.8031V9.32539C30.8031 9.37411 30.8168 9.41074 30.8445 9.4349C30.8722 9.45906 30.9081 9.47153 30.9521 9.47153H31.9331C31.9795 9.47153 32.0169 9.45945 32.0458 9.4349C32.0743 9.41035 32.0887 9.37411 32.0887 9.32539V4.68004C32.0887 4.63133 32.0719 4.59587 32.0392 4.57365Z" fill="#27326A"/>
</g>
<g id="Group_2">
<path id="Vector_9" d="M2.54622 12.4577C2.54661 12.4608 2.54739 12.4643 2.54778 12.4675C2.55012 12.4823 2.55285 12.4971 2.55558 12.5115C2.55831 12.5259 2.56065 12.5407 2.56339 12.5555C2.56612 12.5703 2.56885 12.5848 2.57158 12.5996C2.57431 12.6144 2.57704 12.6288 2.58016 12.6436C2.58289 12.6584 2.58601 12.6728 2.58874 12.6876C2.59186 12.7025 2.59459 12.7169 2.59771 12.7317C2.59849 12.7352 2.59927 12.7391 2.60005 12.7426C3.77174 12.7075 4.94343 12.6728 6.11473 12.6378C5.93102 12.5719 5.83429 12.3591 5.84092 12.1639C5.84794 11.969 5.93531 11.787 6.02112 11.612C7.3613 8.87784 8.70149 6.14363 10.0413 3.40942C8.7405 3.4332 7.44711 3.79134 6.3195 4.43943C6.30702 4.44683 6.29454 4.45385 6.28206 4.46086C6.26957 4.46827 6.25709 4.47528 6.24461 4.48269C6.23213 4.49009 6.21965 4.4975 6.20756 4.5049C6.19508 4.5123 6.18298 4.51971 6.1705 4.52711C6.15802 4.53452 6.14593 4.54192 6.13345 4.54972C6.12097 4.55712 6.10888 4.56492 6.09679 4.57232C6.08469 4.58011 6.07221 4.58752 6.06012 4.59531C6.04803 4.60311 6.03555 4.61051 6.02346 4.61831C6.01137 4.6261 5.99927 4.63389 5.98718 4.64169C5.97509 4.64948 5.963 4.65728 5.95091 4.66507C5.93882 4.67286 5.92673 4.68105 5.91464 4.68884C5.90254 4.69664 5.89045 4.70482 5.87875 4.71262C5.86666 4.7208 5.85496 4.72859 5.84287 4.73678C5.83078 4.74496 5.81907 4.75315 5.80698 4.76094C5.79489 4.76873 5.78319 4.77731 5.77149 4.78549C5.75979 4.79368 5.7477 4.80186 5.736 4.81004C5.72429 4.81823 5.71259 4.8268 5.7005 4.83498C5.6888 4.84317 5.6771 4.85174 5.6654 4.86032C5.6537 4.86889 5.64199 4.87707 5.63029 4.88565C5.61859 4.89422 5.60689 4.90279 5.59558 4.91137C5.58388 4.91994 5.57257 4.92852 5.56087 4.93709C5.54916 4.94566 5.53785 4.95424 5.52615 4.9632C5.51445 4.97216 5.50314 4.98074 5.49183 4.98931C5.48052 4.99788 5.46882 5.00685 5.4575 5.01542C5.44619 5.02438 5.43488 5.03296 5.42318 5.04192C5.41148 5.05088 5.40056 5.05985 5.38925 5.06842C5.37794 5.07699 5.36662 5.08635 5.35531 5.09531C5.344 5.10427 5.33269 5.11324 5.32177 5.1222C5.31046 5.13116 5.29954 5.14052 5.28823 5.14948C5.27691 5.15844 5.26599 5.1678 5.25468 5.17676C5.24337 5.18611 5.23245 5.19508 5.22153 5.20443C5.21061 5.21378 5.1993 5.22275 5.18837 5.2321C5.17745 5.24145 5.16653 5.25081 5.15522 5.26016C5.1443 5.26951 5.13338 5.27886 5.12246 5.28822C5.11154 5.29757 5.10062 5.30692 5.08969 5.31667C5.07877 5.32602 5.06785 5.33576 5.05732 5.34512C5.0464 5.35447 5.03587 5.36421 5.02495 5.37395C5.01403 5.3837 5.00349 5.39305 4.99257 5.40279C4.98204 5.41254 4.97112 5.42228 4.96059 5.43202C4.95006 5.44176 4.93914 5.45151 4.92861 5.46125C4.91808 5.47099 4.90754 5.48073 4.89701 5.49048C4.88648 5.50022 4.87595 5.51035 4.86542 5.5201C4.85489 5.52984 4.84436 5.53997 4.83422 5.54971C4.82368 5.55985 4.81354 5.56959 4.80301 5.57972C4.79248 5.58985 4.78234 5.5996 4.77181 5.60973C4.76128 5.61986 4.75114 5.62999 4.741 5.64013C4.73085 5.65026 4.72032 5.66039 4.71018 5.67052C4.70004 5.68066 4.6899 5.69079 4.67976 5.70131C4.66962 5.71183 4.65948 5.72197 4.64934 5.7321C4.63919 5.74223 4.62905 5.75275 4.6193 5.76288C4.60916 5.77341 4.59941 5.78354 4.58927 5.79406C4.57913 5.80458 4.56938 5.81472 4.55924 5.82524C4.54948 5.83576 4.53934 5.84628 4.52959 5.85681C4.51984 5.86733 4.5097 5.87785 4.49995 5.88837C4.4902 5.89889 4.48045 5.90942 4.4707 5.92033C4.46094 5.93124 4.45119 5.94176 4.44144 5.95228C4.43169 5.96281 4.42194 5.97372 4.41258 5.98424C4.40283 5.99515 4.39347 6.00567 4.38372 6.01659C4.37397 6.0275 4.3646 6.03802 4.35524 6.04893C4.34588 6.05984 4.33613 6.07076 4.32677 6.08167C4.31741 6.09258 4.30805 6.10349 4.29869 6.1144C4.28933 6.12532 4.27996 6.13623 4.2706 6.14714C4.26124 6.15805 4.25188 6.16896 4.24252 6.18026C4.23316 6.19118 4.22419 6.20248 4.21483 6.21339C4.20547 6.2243 4.1965 6.2356 4.18713 6.24691C4.17777 6.25821 4.1688 6.26912 4.15983 6.28042C4.15086 6.29172 4.14189 6.30302 4.13253 6.31394C4.12356 6.32524 4.11459 6.33654 4.10562 6.34784C4.09664 6.35914 4.08767 6.37044 4.0787 6.38174C4.06973 6.39305 4.06076 6.40435 4.05218 6.41604C4.0436 6.42773 4.03463 6.43903 4.02566 6.45033C4.01708 6.46164 4.0081 6.47333 3.99952 6.48463C3.99094 6.49593 3.98197 6.50762 3.97339 6.51931C3.96481 6.531 3.95623 6.54231 3.94765 6.554C3.93907 6.56569 3.93049 6.57738 3.92191 6.58868C3.91332 6.60037 3.90474 6.61206 3.89655 6.62376C3.88836 6.63545 3.87978 6.64714 3.8712 6.65883C3.86301 6.67052 3.85443 6.68221 3.84624 6.6939C3.83805 6.70559 3.82946 6.71729 3.82127 6.72937C3.81308 6.74106 3.80489 6.75314 3.7967 6.76483C3.78851 6.77652 3.78032 6.7886 3.77213 6.80068C3.76394 6.81276 3.75614 6.82446 3.74795 6.83654C3.73976 6.84862 3.73195 6.86031 3.72376 6.87239C3.71596 6.88447 3.70777 6.89655 3.69997 6.90863C3.69217 6.92071 3.68437 6.9328 3.67618 6.94488C3.66838 6.95696 3.66058 6.96904 3.65278 6.98112C3.64497 6.9932 3.63717 7.00528 3.62976 7.01775C3.62196 7.02983 3.61455 7.0423 3.60675 7.05438C3.59895 7.06647 3.59154 7.07894 3.58413 7.09102C3.57672 7.1031 3.56892 7.11557 3.56151 7.12804C3.55995 7.13077 3.55839 7.13389 3.55605 7.13583C3.5537 7.13817 3.55214 7.14129 3.55019 7.14402C3.54629 7.15025 3.54239 7.15688 3.53849 7.16311C3.53069 7.17597 3.52328 7.18884 3.51548 7.2017C3.50768 7.21456 3.50027 7.22742 3.49286 7.24028C3.48545 7.25314 3.47765 7.266 3.47024 7.27886C3.46282 7.29172 3.45541 7.30458 3.448 7.31783C3.44059 7.33108 3.43318 7.34394 3.42616 7.3568C3.41875 7.36966 3.41173 7.38291 3.40432 7.39577C3.39691 7.40902 3.38989 7.42188 3.38287 7.43513C3.37585 7.44838 3.36843 7.46124 3.36141 7.47449C3.35439 7.48774 3.34737 7.50099 3.34035 7.51385C3.33333 7.5271 3.32631 7.54035 3.31968 7.5536C3.31266 7.56685 3.30603 7.5801 3.29901 7.59335C3.29199 7.6066 3.28536 7.61985 3.27872 7.6331C3.27209 7.64636 3.26507 7.65961 3.25844 7.67324C3.25181 7.6865 3.24518 7.70014 3.23855 7.71339C3.23192 7.72664 3.22529 7.74028 3.21905 7.75353C3.21242 7.76678 3.20618 7.78042 3.19955 7.79406C3.19331 7.8077 3.18667 7.82095 3.18043 7.83459C3.17419 7.84823 3.16795 7.86148 3.16132 7.87512C3.15469 7.88876 3.14884 7.90239 3.1426 7.91565C3.13636 7.92929 3.13012 7.94292 3.12427 7.95656C3.11803 7.9702 3.11218 7.98384 3.10594 7.99748C3.09969 8.01112 3.09384 8.02476 3.08799 8.0384C3.08214 8.05204 3.07629 8.06568 3.07005 8.07971C3.0642 8.09335 3.05835 8.10699 3.0525 8.12102C3.04665 8.13466 3.0408 8.14869 3.03534 8.16233C3.02949 8.17597 3.02403 8.19 3.01818 8.20364C3.01271 8.21728 3.00686 8.23131 3.0014 8.24534C2.99594 8.25937 2.99048 8.27301 2.98502 8.28704C2.97956 8.30107 2.9741 8.31471 2.96864 8.32874C2.96318 8.34277 2.95772 8.35641 2.95265 8.37044C2.94758 8.38447 2.94212 8.3985 2.93666 8.41253C2.93159 8.42656 2.92613 8.44059 2.92106 8.45461C2.91598 8.46864 2.91091 8.48267 2.90584 8.4967C2.90077 8.51073 2.8957 8.52476 2.89063 8.53879C2.88556 8.55282 2.88088 8.56685 2.87581 8.58088C2.87074 8.59491 2.86606 8.60894 2.86138 8.62336C2.8567 8.63739 2.85163 8.65181 2.84695 8.66584C2.84227 8.67987 2.83759 8.69429 2.83291 8.70832C2.82822 8.72235 2.82354 8.73676 2.81886 8.75079C2.81418 8.76482 2.80989 8.77924 2.80521 8.79327C2.80053 8.80769 2.79624 8.82172 2.79195 8.83614C2.78766 8.85056 2.78298 8.86459 2.77869 8.87901C2.7744 8.89343 2.77011 8.90746 2.76582 8.92188C2.76153 8.9363 2.75724 8.95033 2.75334 8.96475C2.74905 8.97916 2.74515 8.99358 2.74085 9.00761C2.73656 9.02203 2.73266 9.03645 2.72876 9.05087C2.72486 9.06529 2.72057 9.07971 2.71667 9.09413C2.71277 9.10855 2.70887 9.12297 2.70497 9.13739C2.70107 9.15181 2.69717 9.16623 2.69366 9.18064C2.68976 9.19506 2.68625 9.20948 2.68235 9.2239C2.67884 9.23832 2.67494 9.25274 2.67143 9.26716C2.66792 9.28158 2.66441 9.296 2.6609 9.31081C2.65739 9.32523 2.65388 9.33965 2.65037 9.35446C2.64685 9.36926 2.64334 9.38368 2.64022 9.3981C2.6371 9.41252 2.63359 9.42733 2.63008 9.44175C2.62696 9.45617 2.62345 9.47098 2.62033 9.4854C2.61721 9.49982 2.61409 9.51463 2.61097 9.52905C2.60785 9.54347 2.60473 9.55827 2.60161 9.57308C2.59849 9.58789 2.59576 9.60231 2.59264 9.61712C2.58952 9.63193 2.58679 9.64635 2.58406 9.66116C2.58133 9.67597 2.57821 9.69039 2.57548 9.70519C2.57275 9.72 2.57002 9.73442 2.56729 9.74923C2.56456 9.76404 2.56183 9.77846 2.55949 9.79327C2.55675 9.80808 2.55441 9.8225 2.55168 9.83731C2.54934 9.85212 2.54661 9.86692 2.54427 9.88134C2.54193 9.89615 2.53959 9.91096 2.53686 9.92538C2.53413 9.9398 2.53218 9.955 2.52984 9.96981C2.5275 9.98462 2.52516 9.99943 2.52321 10.0142C2.52087 10.029 2.51892 10.0439 2.51658 10.0587C2.51463 10.0735 2.51229 10.0883 2.51034 10.1031C2.50839 10.1179 2.50644 10.1327 2.50449 10.1475C2.50254 10.1623 2.50059 10.1771 2.49864 10.1919C2.49669 10.2068 2.49513 10.2216 2.49318 10.2364C2.49123 10.2512 2.48967 10.266 2.48811 10.2808C2.48655 10.2956 2.4846 10.3104 2.48304 10.3252C2.48148 10.34 2.47992 10.3548 2.47836 10.3697C2.4768 10.3845 2.47524 10.3993 2.47407 10.4141C2.4729 10.4289 2.47134 10.4437 2.46978 10.4585C2.46861 10.4733 2.46704 10.4881 2.46587 10.5029C2.4647 10.5177 2.46353 10.5325 2.46236 10.5477C2.46119 10.5629 2.46002 10.5774 2.45885 10.5926C2.45768 10.6074 2.45651 10.6222 2.45573 10.6374C2.45456 10.6522 2.45378 10.667 2.45261 10.6822C2.45183 10.697 2.45066 10.7118 2.44988 10.727C2.4491 10.7418 2.44832 10.757 2.44754 10.7718C2.44676 10.7866 2.44598 10.8018 2.4452 10.8166C2.44442 10.8315 2.44403 10.8467 2.44325 10.8615C2.44247 10.8763 2.44208 10.8915 2.44169 10.9063C2.4413 10.9211 2.44052 10.9363 2.44013 10.9511C2.43974 10.9659 2.43935 10.9811 2.43896 10.9959C2.43857 11.0107 2.43818 11.0259 2.43818 11.0407C2.43779 11.0555 2.43779 11.0707 2.4374 11.0855C2.4374 11.1004 2.43701 11.1156 2.43701 11.1304C2.43701 11.1452 2.43701 11.1604 2.43701 11.1752C2.43701 11.19 2.43701 11.2052 2.43701 11.22C2.43701 11.2348 2.4374 11.25 2.4374 11.2648C2.4374 11.2796 2.43779 11.2948 2.43818 11.3096C2.43857 11.3244 2.43857 11.3396 2.43896 11.3544C2.43935 11.3693 2.43974 11.3845 2.44013 11.3993C2.44052 11.4141 2.44091 11.4293 2.44169 11.4441C2.44208 11.4589 2.44286 11.4741 2.44325 11.4889C2.44403 11.5037 2.44442 11.5189 2.4452 11.5337C2.44598 11.5485 2.44676 11.5637 2.44754 11.5785C2.44832 11.5933 2.4491 11.6082 2.44988 11.6233C2.45066 11.6382 2.45183 11.653 2.45261 11.6682C2.45339 11.6834 2.45456 11.6978 2.45573 11.713C2.4569 11.7278 2.45768 11.7426 2.45885 11.7578C2.46002 11.7726 2.46119 11.7874 2.46236 11.8026C2.46353 11.8174 2.4647 11.8322 2.46626 11.847C2.46783 11.8619 2.469 11.8767 2.47017 11.8915C2.47173 11.9063 2.4729 11.9211 2.47446 11.9359C2.47602 11.9507 2.47758 11.9655 2.47914 11.9803C2.4807 11.9951 2.48226 12.0099 2.48382 12.0248C2.48538 12.0396 2.48733 12.0544 2.48889 12.0692C2.49045 12.084 2.4924 12.0988 2.49435 12.1136C2.4963 12.1284 2.49786 12.1432 2.49981 12.158C2.50176 12.1728 2.50371 12.1877 2.50566 12.2025C2.50761 12.2173 2.50956 12.2321 2.5119 12.2469C2.51385 12.2617 2.51619 12.2765 2.51814 12.2913C2.52009 12.3061 2.52243 12.3209 2.52477 12.3357C2.52711 12.3505 2.52945 12.3654 2.53179 12.3802C2.53413 12.395 2.53647 12.4098 2.53881 12.4242C2.54232 12.4347 2.54427 12.446 2.54622 12.4577Z" fill="#EF9029"/>
<g id="Group_3">
<path id="Vector_10" d="M4.97046 16.7877C6.03255 17.7417 7.31579 18.4596 8.72112 18.7168C9.04797 16.9311 9.42125 15.0823 9.7481 13.2967C9.76799 13.1876 9.78789 13.0757 9.7676 12.9666C9.72704 12.7487 9.53007 12.587 9.31788 12.5227C9.1057 12.458 8.87909 12.4728 8.65793 12.4876C8.19417 12.5192 7.73002 12.5512 7.26626 12.5827C7.02092 12.5995 6.77558 12.6162 6.52986 12.6252C6.3442 12.6322 6.15893 12.6346 5.97327 12.6369C5.81998 12.6388 5.66669 12.6408 5.51379 12.6431C5.32189 12.6459 5.13038 12.6482 4.93848 12.6509C4.74658 12.6537 4.55507 12.656 4.36317 12.6587C4.17127 12.6614 3.97976 12.6638 3.78785 12.6665C3.59595 12.6692 3.40444 12.6716 3.21254 12.6743C3.11659 12.6755 3.02064 12.677 2.92508 12.6782C2.8771 12.679 2.82913 12.6794 2.78115 12.6802C2.7402 12.6805 2.69183 12.6743 2.65205 12.6848C2.58418 12.7028 2.60368 12.7815 2.61539 12.8314C2.63372 12.9081 2.65361 12.9849 2.67428 13.0613C2.71602 13.2141 2.76243 13.3653 2.81353 13.5149C2.86462 13.6646 2.9204 13.8127 2.98047 13.9592C3.04053 14.1057 3.10528 14.2499 3.17393 14.3925C3.24296 14.5352 3.3159 14.6755 3.39352 14.8134C3.47075 14.9514 3.55227 15.087 3.63808 15.2203C3.7235 15.3536 3.81321 15.4841 3.90682 15.6116C4.00043 15.7394 4.09755 15.8641 4.19857 15.9857C4.29959 16.1073 4.40451 16.2261 4.51294 16.3415C4.55702 16.3882 4.60148 16.4342 4.64634 16.4798C4.66857 16.5024 4.69119 16.5246 4.71343 16.5469C4.72474 16.5582 4.73605 16.5691 4.74736 16.58C4.75282 16.5851 4.78129 16.6065 4.78129 16.6131C4.84409 16.6723 4.90689 16.7304 4.97046 16.7877Z" fill="#EF9029"/>
<path id="Vector_11" d="M15.5214 5.482C14.4597 4.52799 13.1768 3.81053 11.7719 3.55371C11.445 5.33897 11.0721 7.18698 10.7453 8.97224C10.7254 9.08136 10.7055 9.19321 10.7258 9.30233C10.7663 9.52018 10.9633 9.68191 11.1751 9.74621C11.3869 9.8109 11.6139 9.79609 11.8351 9.78128C12.2988 9.74972 12.7626 9.71815 13.2263 9.68619C13.4717 9.66944 13.717 9.65268 13.9627 9.64372C14.148 9.6367 14.3337 9.63436 14.5193 9.63202C14.6726 9.63007 14.8255 9.62813 14.9788 9.62579C15.1703 9.62306 15.3622 9.62072 15.5537 9.61799C15.7452 9.61527 15.9371 9.61293 16.1287 9.6102C16.3202 9.60747 16.5121 9.60513 16.7036 9.60241C16.8951 9.59968 17.087 9.59734 17.2785 9.59461C17.3745 9.59344 17.47 9.59188 17.566 9.59071C17.6139 9.58993 17.6619 9.58955 17.7099 9.58877C17.7508 9.58838 17.7992 9.59461 17.839 9.58409C17.9069 9.56616 17.8874 9.48744 17.8757 9.43756C17.8573 9.36079 17.8374 9.28401 17.8168 9.20763C17.775 9.05525 17.7286 8.90366 17.6775 8.75401C17.6264 8.60436 17.5706 8.45627 17.5106 8.30974C17.4505 8.1636 17.3858 8.01901 17.3171 7.87638C17.2481 7.73413 17.1751 7.59345 17.0975 7.45549C17.0203 7.31753 16.9388 7.18191 16.853 7.04863C16.7675 6.91574 16.6778 6.78519 16.5842 6.65736C16.4906 6.52954 16.3935 6.40483 16.2925 6.28324C16.1915 6.16165 16.0865 6.04279 15.9781 5.92783C15.934 5.88106 15.8896 5.83508 15.8447 5.78948C15.8225 5.76688 15.8002 5.74466 15.7776 5.72245C15.7663 5.71115 15.755 5.70024 15.7437 5.68932C15.7382 5.68426 15.7097 5.66282 15.7097 5.6562C15.6477 5.59774 15.5849 5.53929 15.5214 5.482Z" fill="#EF9029"/>
<path id="Vector_12" d="M17.9477 9.81047C17.9282 9.69823 17.9118 9.63743 17.8876 9.52637C16.7167 9.56105 15.5462 9.59613 14.3753 9.63081C14.5684 9.71187 14.6589 9.89036 14.6487 10.0992C14.6386 10.3081 14.5446 10.503 14.4525 10.6908C14.2528 11.0985 14.0527 11.5061 13.853 11.9137C12.7184 14.2286 11.5834 16.5431 10.4487 18.858C10.4503 18.8545 10.4955 18.8576 10.501 18.8576C10.5193 18.8572 10.5373 18.8568 10.5556 18.8564C10.5919 18.8556 10.6282 18.8545 10.6648 18.8533C10.7374 18.8506 10.8099 18.8467 10.8825 18.842C11.0276 18.8323 11.1719 18.8178 11.3162 18.7995C11.4601 18.7808 11.6036 18.7582 11.7464 18.7313C11.8892 18.7044 12.0311 18.6733 12.1719 18.6378C12.3127 18.6027 12.4528 18.5634 12.5916 18.5201C12.7305 18.4768 12.8678 18.4297 13.0039 18.3786C13.14 18.3276 13.275 18.273 13.408 18.2146C13.541 18.1561 13.6728 18.0938 13.8023 18.0283C13.9322 17.9624 14.0601 17.8931 14.1857 17.8206C14.3117 17.7477 14.4354 17.6713 14.5571 17.5918C14.6787 17.5123 14.7981 17.4293 14.9151 17.3432C15.0321 17.2571 15.1468 17.1674 15.2587 17.0751C15.3707 16.9827 15.4803 16.8868 15.5868 16.7882C15.6932 16.6896 15.797 16.5879 15.8976 16.4835C15.9983 16.379 16.0962 16.2715 16.1906 16.1612C16.2849 16.0509 16.3762 15.9379 16.464 15.8225C16.5517 15.7068 16.636 15.5887 16.7167 15.4679C16.7569 15.4075 16.7967 15.3463 16.8349 15.2847C16.854 15.2539 16.8731 15.2228 16.8918 15.192C16.9004 15.1776 16.9106 15.167 16.9211 15.1538C16.9336 15.1382 16.9426 15.1187 16.9531 15.102C17.0369 14.9628 17.1165 14.8214 17.191 14.6772C17.2655 14.533 17.3357 14.3864 17.4009 14.238C17.466 14.0895 17.5264 13.9387 17.5822 13.7863C17.638 13.6339 17.6887 13.4796 17.7347 13.3241C17.7808 13.1686 17.8221 13.0112 17.8584 12.8529C17.8947 12.6947 17.9259 12.5353 17.9524 12.3752C17.9789 12.215 18.0004 12.054 18.0167 11.8923C18.0331 11.731 18.0444 11.5688 18.0511 11.4067C18.0573 11.2446 18.0589 11.0821 18.055 10.92C18.0511 10.7579 18.0421 10.5957 18.028 10.434C18.014 10.2723 17.9945 10.1113 17.9699 9.95076C17.9633 9.90322 17.9555 9.85684 17.9477 9.81047Z" fill="#EF9029"/>
</g>
</g>
<path id="Vector_13" d="M10.0431 2.11721C10.0918 2.10318 10.1378 2.08135 10.1796 2.05291L10.1804 2.05213C10.2872 1.97847 10.2681 1.81557 10.1476 1.76842L9.68071 1.58603L7.86818 0.893128C7.65015 0.80973 7.4052 0.923135 7.32875 1.14566C7.2562 1.35766 7.37205 1.58876 7.58189 1.66904L7.91772 1.79726C3.89325 2.87987 0.826735 6.5299 0.816204 10.8697C0.813083 10.9675 0.811523 11.0661 0.811523 11.1647C0.811523 15.5653 3.83085 19.2613 7.91264 20.2976C8.09518 20.344 8.27851 20.2715 8.38538 20.1312C8.4275 20.0762 8.45754 20.0108 8.4708 19.9379C8.47119 19.9348 8.47197 19.9316 8.47236 19.9289C8.51643 19.6912 8.36744 19.4617 8.13302 19.402C4.45452 18.4644 1.73436 15.1324 1.73436 11.1647C1.73436 11.0755 1.73632 10.9862 1.73905 10.8978C1.73905 10.8962 1.73905 10.8947 1.73905 10.8927C1.73905 6.91415 4.4752 3.57511 8.17007 2.64877C8.33233 2.60824 8.49381 2.56537 8.65451 2.519L9.348 2.33116L10.0431 2.11721Z" fill="#27326A"/>
</g>
</svg>
