<svg width="85" height="192" viewBox="0 0 85 192" fill="none" xmlns="http://www.w3.org/2000/svg">
<circle cx="2.11577" cy="2.11577" r="2.11577" transform="matrix(-0.00281621 -0.999996 -0.999996 0.00281621 27.2324 191.12)" fill="#27326A"/>
<circle cx="2.11577" cy="2.11577" r="2.11577" transform="matrix(-0.00281621 -0.999996 -0.999996 0.00281621 27.1738 170.368)" fill="#27326A"/>
<circle cx="2.11577" cy="2.11577" r="2.11577" transform="matrix(-0.00281621 -0.999996 -0.999996 0.00281621 27.1157 149.616)" fill="#27326A"/>
<circle cx="2.11577" cy="2.11577" r="2.11577" transform="matrix(-0.00281621 -0.999996 -0.999996 0.00281621 27.0571 128.864)" fill="#7ACCF9"/>
<circle cx="2.11577" cy="2.11577" r="2.11577" transform="matrix(-0.00281621 -0.999996 -0.999996 0.00281621 26.9985 108.112)" fill="#7ACCF9"/>
<circle cx="2.11577" cy="2.11577" r="2.11577" transform="matrix(-0.00281621 -0.999996 -0.999996 0.00281621 26.9404 87.3599)" fill="#7ACCF9" fill-opacity="0.6"/>
<circle cx="2.11577" cy="2.11577" r="2.11577" transform="matrix(-0.00281621 -0.999996 -0.999996 0.00281621 26.8818 66.6079)" fill="#7ACCF9" fill-opacity="0.6"/>
<circle cx="2.11577" cy="2.11577" r="2.11577" transform="matrix(-0.00281621 -0.999996 -0.999996 0.00281621 26.8232 45.856)" fill="#97D7FA" fill-opacity="0.53"/>
<circle cx="2.11577" cy="2.11577" r="2.11577" transform="matrix(-0.00281621 -0.999996 -0.999996 0.00281621 26.7646 25.1038)" fill="#97D7FA" fill-opacity="0.53"/>
<circle cx="2.11577" cy="2.11577" r="2.11577" transform="matrix(-0.00281621 -0.999996 -0.999996 0.00281621 26.7065 4.35181)" fill="#ACDEFA" fill-opacity="0.41"/>
<circle cx="2.11577" cy="2.11577" r="2.11577" transform="matrix(-0.00281621 -0.999996 -0.999996 0.00281621 13.001 191.16)" fill="#27326A"/>
<circle cx="2.11577" cy="2.11577" r="2.11577" transform="matrix(-0.00281621 -0.999996 -0.999996 0.00281621 12.9424 170.408)" fill="#27326A"/>
<circle cx="2.11577" cy="2.11577" r="2.11577" transform="matrix(-0.00281621 -0.999996 -0.999996 0.00281621 12.8843 149.656)" fill="#27326A"/>
<circle cx="2.11577" cy="2.11577" r="2.11577" transform="matrix(-0.00281621 -0.999996 -0.999996 0.00281621 12.8257 128.904)" fill="#7ACCF9"/>
<circle cx="2.11577" cy="2.11577" r="2.11577" transform="matrix(-0.00281621 -0.999996 -0.999996 0.00281621 12.7671 108.152)" fill="#7ACCF9"/>
<circle cx="2.11577" cy="2.11577" r="2.11577" transform="matrix(-0.00281621 -0.999996 -0.999996 0.00281621 12.7085 87.3999)" fill="#7ACCF9" fill-opacity="0.6"/>
<circle cx="2.11577" cy="2.11577" r="2.11577" transform="matrix(-0.00281621 -0.999996 -0.999996 0.00281621 12.6504 66.6479)" fill="#7ACCF9" fill-opacity="0.6"/>
<circle cx="2.11577" cy="2.11577" r="2.11577" transform="matrix(-0.00281621 -0.999996 -0.999996 0.00281621 12.5918 45.896)" fill="#97D7FA" fill-opacity="0.53"/>
<circle cx="2.11577" cy="2.11577" r="2.11577" transform="matrix(-0.00281621 -0.999996 -0.999996 0.00281621 12.5332 25.144)" fill="#97D7FA" fill-opacity="0.53"/>
<circle cx="2.11577" cy="2.11577" r="2.11577" transform="matrix(-0.00281621 -0.999996 -0.999996 0.00281621 12.4751 4.39209)" fill="#ACDEFA" fill-opacity="0.41"/>
<circle cx="2.11577" cy="2.11577" r="2.11577" transform="matrix(-0.00281621 -0.999996 -0.999996 0.00281621 69.9268 190.999)" fill="#27326A"/>
<circle cx="2.11577" cy="2.11577" r="2.11577" transform="matrix(-0.00281621 -0.999996 -0.999996 0.00281621 69.8682 170.247)" fill="#27326A"/>
<circle cx="2.11577" cy="2.11577" r="2.11577" transform="matrix(-0.00281621 -0.999996 -0.999996 0.00281621 69.8101 149.495)" fill="#27326A"/>
<circle cx="2.11577" cy="2.11577" r="2.11577" transform="matrix(-0.00281621 -0.999996 -0.999996 0.00281621 69.7515 128.743)" fill="#7ACCF9"/>
<circle cx="2.11577" cy="2.11577" r="2.11577" transform="matrix(-0.00281621 -0.999996 -0.999996 0.00281621 69.6929 107.991)" fill="#7ACCF9"/>
<circle cx="2.11577" cy="2.11577" r="2.11577" transform="matrix(-0.00281621 -0.999996 -0.999996 0.00281621 69.6348 87.2395)" fill="#7ACCF9" fill-opacity="0.6"/>
<circle cx="2.11577" cy="2.11577" r="2.11577" transform="matrix(-0.00281621 -0.999996 -0.999996 0.00281621 69.5762 66.4875)" fill="#7ACCF9" fill-opacity="0.6"/>
<circle cx="2.11577" cy="2.11577" r="2.11577" transform="matrix(-0.00281621 -0.999996 -0.999996 0.00281621 69.5176 45.7356)" fill="#97D7FA" fill-opacity="0.53"/>
<circle cx="2.11577" cy="2.11577" r="2.11577" transform="matrix(-0.00281621 -0.999996 -0.999996 0.00281621 69.459 24.9834)" fill="#97D7FA" fill-opacity="0.53"/>
<circle cx="2.11577" cy="2.11577" r="2.11577" transform="matrix(-0.00281621 -0.999996 -0.999996 0.00281621 69.4009 4.23145)" fill="#ACDEFA" fill-opacity="0.41"/>
<circle cx="2.11577" cy="2.11577" r="2.11577" transform="matrix(-0.00281621 -0.999996 -0.999996 0.00281621 55.6953 191.039)" fill="#27326A"/>
<circle cx="2.11577" cy="2.11577" r="2.11577" transform="matrix(-0.00281621 -0.999996 -0.999996 0.00281621 55.6367 170.287)" fill="#27326A"/>
<circle cx="2.11577" cy="2.11577" r="2.11577" transform="matrix(-0.00281621 -0.999996 -0.999996 0.00281621 55.5786 149.535)" fill="#27326A"/>
<circle cx="2.11577" cy="2.11577" r="2.11577" transform="matrix(-0.00281621 -0.999996 -0.999996 0.00281621 55.52 128.783)" fill="#7ACCF9"/>
<circle cx="2.11577" cy="2.11577" r="2.11577" transform="matrix(-0.00281621 -0.999996 -0.999996 0.00281621 55.4614 108.031)" fill="#7ACCF9"/>
<circle cx="2.11577" cy="2.11577" r="2.11577" transform="matrix(-0.00281621 -0.999996 -0.999996 0.00281621 55.4028 87.2795)" fill="#7ACCF9" fill-opacity="0.6"/>
<circle cx="2.11577" cy="2.11577" r="2.11577" transform="matrix(-0.00281621 -0.999996 -0.999996 0.00281621 55.3447 66.5276)" fill="#7ACCF9" fill-opacity="0.6"/>
<circle cx="2.11577" cy="2.11577" r="2.11577" transform="matrix(-0.00281621 -0.999996 -0.999996 0.00281621 55.2861 45.7756)" fill="#97D7FA" fill-opacity="0.53"/>
<circle cx="2.11577" cy="2.11577" r="2.11577" transform="matrix(-0.00281621 -0.999996 -0.999996 0.00281621 55.2275 25.0237)" fill="#97D7FA" fill-opacity="0.53"/>
<circle cx="2.11577" cy="2.11577" r="2.11577" transform="matrix(-0.00281621 -0.999996 -0.999996 0.00281621 55.1694 4.27173)" fill="#ACDEFA" fill-opacity="0.41"/>
<circle cx="2.11577" cy="2.11577" r="2.11577" transform="matrix(-0.00281621 -0.999996 -0.999996 0.00281621 41.4639 191.079)" fill="#27326A"/>
<circle cx="2.11577" cy="2.11577" r="2.11577" transform="matrix(-0.00281621 -0.999996 -0.999996 0.00281621 41.4053 170.327)" fill="#27326A"/>
<circle cx="2.11577" cy="2.11577" r="2.11577" transform="matrix(-0.00281621 -0.999996 -0.999996 0.00281621 41.3467 149.575)" fill="#27326A"/>
<circle cx="2.11577" cy="2.11577" r="2.11577" transform="matrix(-0.00281621 -0.999996 -0.999996 0.00281621 41.2886 128.823)" fill="#7ACCF9"/>
<circle cx="2.11577" cy="2.11577" r="2.11577" transform="matrix(-0.00281621 -0.999996 -0.999996 0.00281621 41.23 108.072)" fill="#7ACCF9"/>
<circle cx="2.11577" cy="2.11577" r="2.11577" transform="matrix(-0.00281621 -0.999996 -0.999996 0.00281621 41.1714 87.3196)" fill="#7ACCF9" fill-opacity="0.6"/>
<circle cx="2.11577" cy="2.11577" r="2.11577" transform="matrix(-0.00281621 -0.999996 -0.999996 0.00281621 41.1133 66.5676)" fill="#7ACCF9" fill-opacity="0.6"/>
<circle cx="2.11577" cy="2.11577" r="2.11577" transform="matrix(-0.00281621 -0.999996 -0.999996 0.00281621 41.0547 45.8157)" fill="#97D7FA" fill-opacity="0.53"/>
<circle cx="2.11577" cy="2.11577" r="2.11577" transform="matrix(-0.00281621 -0.999996 -0.999996 0.00281621 40.9961 25.0637)" fill="#97D7FA" fill-opacity="0.53"/>
<circle cx="2.11577" cy="2.11577" r="2.11577" transform="matrix(-0.00281621 -0.999996 -0.999996 0.00281621 40.938 4.31177)" fill="#ACDEFA" fill-opacity="0.41"/>
<circle cx="2.11577" cy="2.11577" r="2.11577" transform="matrix(-0.00281621 -0.999996 -0.999996 0.00281621 84.6968 190.999)" fill="#27326A"/>
<circle cx="2.11577" cy="2.11577" r="2.11577" transform="matrix(-0.00281621 -0.999996 -0.999996 0.00281621 84.6382 170.247)" fill="#27326A"/>
<circle cx="2.11577" cy="2.11577" r="2.11577" transform="matrix(-0.00281621 -0.999996 -0.999996 0.00281621 84.5796 149.495)" fill="#27326A"/>
<circle cx="2.11577" cy="2.11577" r="2.11577" transform="matrix(-0.00281621 -0.999996 -0.999996 0.00281621 84.521 128.743)" fill="#7ACCF9"/>
<circle cx="2.11577" cy="2.11577" r="2.11577" transform="matrix(-0.111597 -0.993754 -0.993754 0.111597 84.6797 107.748)" fill="#7ACCF9"/>
<circle cx="2.11577" cy="2.11577" r="2.11577" transform="matrix(-0.00281621 -0.999996 -0.999996 0.00281621 84.4048 87.2395)" fill="#7ACCF9" fill-opacity="0.6"/>
<circle cx="2.11577" cy="2.11577" r="2.11577" transform="matrix(-0.00281621 -0.999996 -0.999996 0.00281621 84.3462 66.4875)" fill="#7ACCF9" fill-opacity="0.6"/>
<circle cx="2.11577" cy="2.11577" r="2.11577" transform="matrix(-0.00281621 -0.999996 -0.999996 0.00281621 84.2876 45.7356)" fill="#97D7FA" fill-opacity="0.53"/>
<circle cx="2.11577" cy="2.11577" r="2.11577" transform="matrix(-0.00281621 -0.999996 -0.999996 0.00281621 84.229 24.9834)" fill="#97D7FA" fill-opacity="0.53"/>
<circle cx="2.11577" cy="2.11577" r="2.11577" transform="matrix(-0.00281621 -0.999996 -0.999996 0.00281621 84.1704 4.23145)" fill="#ACDEFA" fill-opacity="0.41"/>
</svg>
